<?xml version="1.0" encoding="utf-8"?>
<!-- Generator: Adobe Illustrator 16.0.3, SVG Export Plug-In . SVG Version: 6.00 Build 0)  -->
<!DOCTYPE svg PUBLIC "-//W3C//DTD SVG 1.1 Basic//EN" "http://www.w3.org/Graphics/SVG/1.1/DTD/svg11-basic.dtd">
<svg version="1.1" baseProfile="basic" id="Layer_1"
     xmlns="http://www.w3.org/2000/svg" xmlns:xlink="http://www.w3.org/1999/xlink" x="0px" y="0px" width="612px"
     height="792px"
     viewBox="0 0 612 792" xml:space="preserve">
<path fill="none" stroke="#010101" stroke-miterlimit="10" d="M152.958,340.279c-2.517-2.72-3.402-5.68-1.983-9.94
	c-0.232-0.23-0.454-0.483-0.653-0.764c-4.184-5.859,2.091-12.133,2.091-12.133c6.079-4.987,10.354-5.733,13.332-4.709
	c5.397-2.642,10.811-2.723,13.425-0.698c9.359-6.746,20.772-12.642,34.698-17.174c80.965-26.35,150.441-4.045,156.115-2.132
	c0.449-0.133,1.717-1.117,1.717-1.117c6.75-3.5,32.918-18.75,41.668-11.833c5.244,4.144,4.681,16.246,3.388,25.282
	c1.412,0.499,2.64,1.164,3.612,2.05c5.25,4.783,5.707,14.305,4.043,24.421c13.342,17.838,17.957,34.329,17.957,34.329
	s6,10.5,18.5,13s12,13,12,13s0,34-2.5,43.5s-14,9-14,9s-23.5,2.5-32,16s-28,25-34.5,29s-14.5,16-15.5,24.5s-21.5,6.5-21.5,6.5
	c-18,0.5-20-4-20-4s-1-8-11.5-11s-15.997,0.916-43.5,0c-30-1-32,9.5-32,9.5s3.5,6-19.5,6s-20.5-7-20.5-7
	c-8.5-25-24.5-32.5-24.5-32.5c-28-19-38.5-50.5-41.5-66C137.978,405.6,134.313,371.247,152.958,340.279z"/>
</svg>
